HIERARCHY
ROOT Hips
{
	OFFSET -0.179506 -22.333345 2.821913
	CHANNELS 6 Xposition Yposition Zposition Zrotation Yrotation Xrotation 
	JOINT LeftUpLeg
	{
		OFFSET 6.951974 -9.140623 -0.681533
		CHANNELS 3 Zrotation Yrotation Xrotation
		JOINT LeftLeg
		{
			OFFSET 3.427654 -37.519855 -0.449580
			CHANNELS 3 Zrotation Yrotation Xrotation
			JOINT LeftFoot
			{
				OFFSET -1.359570 -39.796059 -4.369333
				CHANNELS 3 Zrotation Yrotation Xrotation
				JOINT LeftToe
				{
					OFFSET 2.635814 -5.579078 11.928840
					CHANNELS 3 Zrotation Yrotation Xrotation
					End Site
					{
						OFFSET 0.000000 0.000000 0.000000
					}
				}
			}
		}
	}
	JOINT RightUpLeg
	{
		OFFSET -6.767048 -9.052170 -0.431982
		CHANNELS 3 Zrotation Yrotation Xrotation
		JOINT RightLeg
		{
			OFFSET -3.829005 -38.256897 -0.885003
			CHANNELS 3 Zrotation Yrotation Xrotation
			JOINT RightFoot
			{
				OFFSET 1.577377 -39.841461 -4.231180
				CHANNELS 3 Zrotation Yrotation Xrotation
				JOINT RightToe
				{
					OFFSET -2.537174 -4.814398 12.334795
					CHANNELS 3 Zrotation Yrotation Xrotation
					End Site
					{
						OFFSET 0.000000 0.000000 0.000000
					}
				}
			}
		}
	}
	JOINT Spine
	{
		OFFSET -0.253288 10.896323 -2.669631
		CHANNELS 3 Zrotation Yrotation Xrotation
		JOINT Spine1
		{
			OFFSET 0.548704 13.518043 0.109247
			CHANNELS 3 Zrotation Yrotation Xrotation
			JOINT Spine2
			{
				OFFSET 0.145701 5.292222 2.542457
				CHANNELS 3 Zrotation Yrotation Xrotation
				JOINT Neck
				{
					OFFSET -0.277840 21.387037 -4.285703
					CHANNELS 3 Zrotation Yrotation Xrotation
					JOINT Head
					{
						OFFSET 0.515184 6.496960 5.134897
						CHANNELS 3 Zrotation Yrotation Xrotation
						End Site
						{
							OFFSET 0.000000 0.000000 0.000000
						}
					}
				}
				JOINT LeftShoulder
				{
					OFFSET 7.884473 12.174932 -3.408961
					CHANNELS 3 Zrotation Yrotation Xrotation
					JOINT LeftArm
					{
						OFFSET 9.097692 3.046888 -0.886815
						CHANNELS 3 Zrotation Yrotation Xrotation
						JOINT LeftForeArm
						{
							OFFSET 25.961220 -1.277207 -2.745643
							CHANNELS 3 Zrotation Yrotation Xrotation
							JOINT LeftHand
							{
								OFFSET 24.923361 0.898606 -0.117091
								CHANNELS 3 Zrotation Yrotation Xrotation
								End Site
								{
									OFFSET 0.000000 0.000000 0.000000
								}
							}
						}
					}
				}
				JOINT RightShoulder
				{
					OFFSET -8.175920 11.883285 -3.861528
					CHANNELS 3 Zrotation Yrotation Xrotation
					JOINT RightArm
					{
						OFFSET -9.601238 3.255117 -0.914307
						CHANNELS 3 Zrotation Yrotation Xrotation
						JOINT RightForeArm
						{
							OFFSET -25.374195 -1.332924 -2.140099
							CHANNELS 3 Zrotation Yrotation Xrotation
							JOINT RightHand
							{
								OFFSET -25.529810 0.777228 -0.555919
								CHANNELS 3 Zrotation Yrotation Xrotation
								End Site
								{
									OFFSET 0.000000 0.000000 0.000000
								}
							}
						}
					}
				}
			}
		}
	}
}
MOTION
Frames: 15
Frame Time: 0.033333
-16.965462 118.959633 89.479233 -120.014566 0.885532 85.511145 15.266985 7.899401 -6.256651 -6.700548 -0.820882 28.103855 0.715489 12.946045 -26.420686 nan nan nan -13.930533 -13.957453 -17.184139 2.155545 -12.807837 24.721700 1.793945 -11.302587 -8.106258 nan nan nan -4.571333 0.884668 7.002652 8.190914 -7.084341 11.994805 2.783860 -0.805093 -5.475405 3.615773 -22.765358 13.553016 6.867710 -17.225276 12.675163 -17.711572 -15.235499 4.863214 -51.498225 -43.641888 24.068358 122.635882 -84.205589 -100.210650 -1.130849 -9.609126 2.603536 16.146481 11.370466 -1.569930 27.206038 18.210237 -6.896831 -48.570958 41.421467 -39.296267 1.586184 1.695757 -6.180530 
-16.996704 118.711647 89.523407 -120.243452 0.960637 85.428239 15.318957 8.096527 -6.112801 -6.843794 -0.664999 28.070539 0.782005 12.878210 -26.510267 nan nan nan -14.017143 -13.887083 -17.127236 2.245500 -12.673441 24.636320 2.028294 -11.053493 -7.794320 nan nan nan -4.815702 0.986233 6.933103 8.281482 -7.078854 12.281402 2.780227 -0.768837 -5.629413 3.753425 -22.519978 13.687537 6.748022 -17.229757 13.143157 -17.316848 -15.333592 4.922372 -51.603424 -44.393665 24.291050 125.747439 -83.796880 -103.897177 -0.869957 -9.288504 2.150367 16.164530 11.423540 -1.434881 26.924468 18.484624 -7.059733 -49.315234 41.665210 -40.347366 0.914655 1.558811 -6.162546 
-17.055254 118.500656 89.555824 -120.497011 1.153441 85.260231 15.549447 8.402382 -5.814159 -6.830364 -0.319201 28.012782 0.825600 12.332157 -26.651251 nan nan nan -14.044152 -13.785673 -16.918829 2.327910 -12.909342 24.366589 1.986170 -10.666289 -7.521342 nan nan nan -4.962815 1.264364 6.860879 8.425571 -7.125289 13.113496 2.890594 -0.894372 -6.397612 4.085803 -21.717806 13.982203 6.644637 -17.946554 13.214441 -16.503519 -15.289091 4.911163 -50.755441 -45.485914 23.615487 125.866849 -81.987897 -106.018962 -11.684316 -9.356968 1.214610 15.787712 11.481657 -1.133387 27.058569 18.365406 -6.585897 -51.128448 41.630142 -41.457144 5.473888 1.322673 -6.716644 
-17.098785 118.255859 89.597725 -120.642784 1.399066 85.247953 15.765359 8.638337 -5.799430 -7.091547 -0.497290 28.012141 0.847476 12.435643 -26.670745 nan nan nan -13.991170 -13.937569 -16.836297 2.595079 -12.709948 24.041749 2.168753 -10.571414 -7.085960 nan nan nan -5.015952 1.480820 7.089492 8.530251 -6.896697 12.182436 3.007529 -0.819634 -5.653890 4.106512 -22.212410 14.073570 6.740708 -17.684456 13.399527 -16.072182 -16.232179 4.388742 -52.737882 -45.858917 24.884387 125.379274 -82.764011 -101.555405 -6.824787 -8.943323 -0.210358 15.501260 11.197021 -2.175781 27.175906 17.886925 -6.576795 -51.342907 42.474562 -40.871283 3.745471 1.410826 -6.809858 
-17.138025 117.996277 89.630051 -120.831135 1.570140 85.307356 15.851222 8.730760 -5.837633 -7.095720 -0.263342 27.966937 0.899540 12.362133 -26.648531 nan nan nan -14.093308 -13.970588 -16.852106 2.817887 -12.820464 23.854252 2.485618 -10.179882 -6.484705 nan nan nan -5.054196 1.609265 7.005199 8.588765 -6.886523 12.016630 3.043443 -0.814452 -5.552904 4.129945 -22.099050 14.483839 6.752408 -17.708538 13.501507 -15.757662 -16.722778 4.194342 -52.623960 -46.170520 24.704258 125.962889 -82.365655 -101.595960 -6.731986 -9.613252 -1.384877 15.422903 11.378084 -2.475806 27.265168 17.900041 -6.872973 -52.220408 42.727934 -41.501293 3.676873 1.538017 -6.567955 
-17.178116 117.775627 89.661392 -120.990790 1.784790 85.254568 16.063776 8.861023 -5.696063 -6.927277 0.239343 27.926222 0.834283 11.662960 -26.586832 nan nan nan -14.147383 -13.949036 -16.623836 2.889951 -13.131818 23.651751 2.920795 -9.380087 -5.985434 nan nan nan -4.779928 1.116188 7.738723 8.411923 -6.932495 10.947372 2.741291 -0.448615 -5.035699 4.319458 -21.056857 14.656847 7.098841 -17.855518 12.841135 -14.452305 -15.799047 2.784404 -55.438917 -46.292918 27.842382 120.897170 -81.185682 -95.373817 -6.737839 -10.080562 -2.974340 15.371563 10.856406 -3.049319 28.259894 19.213579 -5.538018 -53.720191 42.072179 -42.378885 3.653068 1.818979 -7.081940 
-17.218845 117.527588 89.689629 -121.124842 2.041726 85.278017 16.264913 8.969129 -5.706702 -7.131948 0.250537 27.917772 0.789631 11.805527 -26.607261 nan nan nan -14.210412 -13.917960 -16.506816 3.258326 -13.041795 23.461336 3.306608 -9.060054 -5.437643 nan nan nan -4.970196 1.470274 7.564395 8.725592 -6.683328 10.898999 3.003622 -0.718527 -4.684788 4.399985 -21.002983 14.559336 7.113917 -17.971200 12.851416 -14.047086 -16.044009 2.594341 -55.858017 -47.002145 28.007980 121.751444 -81.128691 -95.317255 -5.697916 -10.219527 -3.688103 15.114358 10.797500 -3.661116 28.152426 19.220267 -5.592678 -54.386557 42.423047 -43.001916 3.358707 1.959636 -7.701930 
-17.258644 117.291641 89.708229 -121.277761 2.263639 85.294280 16.395762 9.114838 -5.803732 -7.179541 0.356242 28.078356 0.802963 11.733810 -26.733231 nan nan nan -14.268531 -13.887505 -16.481769 3.490619 -12.974343 23.357660 3.674768 -8.609336 -4.973468 nan nan nan -4.939791 1.362240 7.540250 8.766999 -6.736530 10.861252 2.935339 -0.506163 -4.576862 4.484089 -20.659521 14.717651 7.152942 -18.136222 12.923691 -13.607946 -15.984081 2.383153 -56.275353 -47.437969 28.247421 123.001198 -80.857611 -95.857656 -5.300060 -10.618209 -4.185644 15.124412 10.836586 -3.444900 27.986343 19.419900 -5.784561 -55.381895 42.682875 -43.675071 3.191347 2.139731 -8.099117 
-17.295834 117.053383 89.717422 -121.508356 2.426011 85.274730 16.431366 9.186074 -5.827520 -7.133201 0.520575 28.169579 0.928244 11.716937 -26.833464 nan nan nan -14.380827 -13.800527 -16.500921 3.654999 -12.942199 23.277428 4.010762 -8.114704 -4.450992 nan nan nan -5.002305 1.482660 7.356893 8.879513 -6.670502 11.338194 2.960295 -0.467421 -4.808215 4.601172 -20.357440 14.712105 7.070211 -18.266861 13.120547 -13.315178 -16.128208 2.175087 -56.700911 -47.751816 28.602676 123.739905 -80.368477 -96.288181 -5.116983 -10.804015 -4.472580 15.171330 10.892725 -3.281262 27.666397 19.518444 -5.867730 -56.527888 42.851467 -44.671783 3.286887 2.189309 -8.297874 
-17.343500 116.824539 89.743431 -121.750051 2.621013 85.247226 16.530979 9.185977 -5.800863 -7.090540 0.790044 28.203584 0.968872 11.675621 -26.879989 nan nan nan -14.465302 -13.666111 -16.493737 3.847680 -12.950915 23.203781 4.431115 -7.752366 -3.962377 nan nan nan -4.993880 1.608666 7.307408 8.978797 -6.586609 11.479695 2.970075 -0.511984 -4.896239 4.741617 -19.955127 14.749675 6.963814 -18.359531 13.299976 -13.119002 -16.117112 1.955338 -57.091670 -48.057292 28.921644 124.546753 -79.889655 -97.291007 -5.547503 -11.110701 -4.132638 15.182210 10.975479 -3.443346 27.591027 19.547902 -5.755285 -57.473611 42.999844 -45.414604 3.734519 2.288946 -7.948951 
-17.387398 116.615479 89.787117 -121.953800 2.790250 85.213842 16.595209 9.194319 -5.810849 -6.942069 1.176905 28.350517 0.968336 11.448027 -26.963474 nan nan nan -14.557830 -13.534388 -16.544427 4.004254 -12.916365 23.307951 4.842993 -7.524033 -3.639424 nan nan nan -4.670832 0.978900 7.844220 8.642345 -7.004400 10.702720 2.441092 0.225890 -4.806569 4.951455 -19.259529 15.218087 7.032077 -18.380962 13.613934 -12.637344 -15.324241 1.710182 -57.462384 -48.334452 29.237093 126.791147 -79.582852 -99.714551 -6.366465 -11.441610 -3.734330 15.594039 11.066222 -3.003436 27.861759 20.061894 -5.775120 -58.372114 43.061154 -45.712098 4.256713 2.410948 -6.830678 
-17.424696 116.410378 89.822037 -122.190156 3.022684 85.108703 16.747688 9.165955 -5.723648 -7.009343 1.261030 28.444818 1.108045 11.708043 -27.023223 nan nan nan -14.596450 -13.325019 -16.558635 4.225459 -12.768534 23.485396 4.892238 -7.363364 -3.526122 nan nan nan -4.934916 1.798339 7.384037 9.055006 -6.461622 11.644665 2.910355 -0.417589 -5.141210 5.068789 -19.484147 14.960329 6.771381 -18.459867 13.807146 -12.728764 -16.115865 1.834443 -57.483756 -48.896601 29.095510 126.827649 -79.071808 -99.888458 -7.124959 -11.530545 -3.299003 15.331120 10.969342 -3.575345 27.394168 19.591586 -6.032859 -58.987278 43.502179 -46.060778 4.593713 2.472793 -6.015594 
-17.456285 116.237244 89.845886 -122.454788 3.151933 85.011338 16.782988 9.099711 -5.607341 -6.929712 1.503900 28.484622 1.176071 11.754884 -27.098726 nan nan nan -14.712152 -13.151231 -16.650290 4.388049 -12.655330 23.830690 5.079837 -6.856375 -3.471058 nan nan nan -4.888074 1.646254 7.449406 8.970428 -6.533193 11.645899 2.712737 -0.085138 -5.164873 5.133149 -19.138725 15.203332 6.784311 -18.481202 13.971351 -12.409504 -15.883702 1.720665 -57.880891 -49.198994 29.441152 127.525876 -78.687870 -100.479832 -7.115463 -11.858311 -3.584019 15.492452 10.975225 -3.350125 27.450571 19.788966 -6.089942 -60.050765 43.711400 -46.615786 4.742325 2.604079 -5.462483 
-17.468334 116.078110 89.856659 -122.774755 3.317622 84.915956 16.890726 9.074408 -5.484742 -6.877402 1.717928 28.495014 1.246266 11.863163 -27.118666 nan nan nan -14.734137 -12.899171 -16.788223 4.569096 -12.375448 24.249050 5.213451 -6.324239 -3.613135 nan nan nan -4.952866 1.853325 7.284412 9.083543 -6.357895 12.068240 2.749322 -0.111944 -5.354880 5.204952 -18.919268 15.213251 6.677085 -18.556009 14.196424 -12.297769 -15.933785 1.636655 -58.167328 -49.602579 29.779112 127.814814 -78.360844 -100.932112 -6.829001 -12.207580 -4.044522 15.419504 10.963509 -3.258561 27.445237 19.854440 -6.167648 -61.139301 43.906585 -47.475388 4.257638 2.611552 -5.182999 
-17.495256 115.940361 89.857277 -123.018006 3.439516 84.808721 16.941313 9.107268 -5.350166 -6.746547 1.904356 28.477841 1.303810 11.865726 -27.148972 nan nan nan -14.767205 -12.662881 -16.897211 4.644277 -12.111052 24.753323 5.337503 -5.800492 -4.085200 nan nan nan -4.976807 1.874477 7.333326 9.105725 -6.297664 12.137545 2.672966 -0.036452 -5.479611 5.234591 -18.675554 15.319284 6.568833 -18.574361 14.533816 -12.156902 -15.698129 1.577669 -58.446969 -50.038592 30.129630 128.760260 -78.173890 -102.169511 -6.528853 -12.577987 -4.519797 15.577277 10.858349 -3.194050 27.414154 20.164150 -6.062995 -62.074703 44.056720 -48.153581 3.716135 2.609740 -4.962280 
